<mxfile host="app.diagrams.net" modified="2023-09-26T02:59:40.577Z" agent="Mozilla/5.0 (Macintosh; Intel Mac OS X 10_15_7) AppleWebKit/537.36 (KHTML, like Gecko) Chrome/117.0.0.0 Safari/537.36 Edg/117.0.2045.40" etag="hJBbxblxo4iv-v0WMg_o" version="21.8.2" type="device">
  <diagram name="第 1 页" id="Fp8UDS-psROHH5X067gc">
    <mxGraphModel dx="1659" dy="950" grid="1" gridSize="10" guides="1" tooltips="1" connect="1" arrows="1" fold="1" page="1" pageScale="1" pageWidth="827" pageHeight="1169" math="0" shadow="0">
      <root>
        <mxCell id="0" />
        <mxCell id="1" parent="0" />
        <mxCell id="8UIb9Dlm0H-UXilKtBtX-1" value="" style="rounded=1;whiteSpace=wrap;html=1;fillColor=none;dashed=1;" parent="1" vertex="1">
          <mxGeometry x="54" y="180" width="360" height="130" as="geometry" />
        </mxCell>
        <mxCell id="8UIb9Dlm0H-UXilKtBtX-4" style="edgeStyle=orthogonalEdgeStyle;rounded=0;orthogonalLoop=1;jettySize=auto;html=1;exitX=1;exitY=0.5;exitDx=0;exitDy=0;entryX=0;entryY=0.5;entryDx=0;entryDy=0;" parent="1" source="8UIb9Dlm0H-UXilKtBtX-2" target="8UIb9Dlm0H-UXilKtBtX-3" edge="1">
          <mxGeometry relative="1" as="geometry" />
        </mxCell>
        <mxCell id="8UIb9Dlm0H-UXilKtBtX-2" value="SourceOperator&lt;br&gt;T1" style="ellipse;whiteSpace=wrap;html=1;" parent="1" vertex="1">
          <mxGeometry x="84" y="205" width="110" height="75" as="geometry" />
        </mxCell>
        <mxCell id="8UIb9Dlm0H-UXilKtBtX-13" style="edgeStyle=orthogonalEdgeStyle;rounded=0;orthogonalLoop=1;jettySize=auto;html=1;exitX=0.5;exitY=1;exitDx=0;exitDy=0;endArrow=none;endFill=0;strokeColor=#6666FF;strokeWidth=2;dashed=1;" parent="1" source="8UIb9Dlm0H-UXilKtBtX-3" target="8UIb9Dlm0H-UXilKtBtX-8" edge="1">
          <mxGeometry relative="1" as="geometry" />
        </mxCell>
        <mxCell id="8UIb9Dlm0H-UXilKtBtX-3" value="HashBuildOperator" style="ellipse;whiteSpace=wrap;html=1;fillColor=#d5e8d4;strokeColor=#82b366;" parent="1" vertex="1">
          <mxGeometry x="274" y="206.25" width="110" height="72.5" as="geometry" />
        </mxCell>
        <mxCell id="8UIb9Dlm0H-UXilKtBtX-5" value="Pipeline0" style="text;html=1;strokeColor=none;fillColor=none;align=center;verticalAlign=middle;whiteSpace=wrap;rounded=0;" parent="1" vertex="1">
          <mxGeometry x="64" y="310" width="60" height="30" as="geometry" />
        </mxCell>
        <mxCell id="8UIb9Dlm0H-UXilKtBtX-6" value="" style="rounded=1;whiteSpace=wrap;html=1;fillColor=none;dashed=1;" parent="1" vertex="1">
          <mxGeometry x="89" y="450" width="460" height="130" as="geometry" />
        </mxCell>
        <mxCell id="8UIb9Dlm0H-UXilKtBtX-9" style="edgeStyle=orthogonalEdgeStyle;rounded=0;orthogonalLoop=1;jettySize=auto;html=1;exitX=1;exitY=0.5;exitDx=0;exitDy=0;entryX=0;entryY=0.5;entryDx=0;entryDy=0;" parent="1" source="8UIb9Dlm0H-UXilKtBtX-7" target="8UIb9Dlm0H-UXilKtBtX-8" edge="1">
          <mxGeometry relative="1" as="geometry" />
        </mxCell>
        <mxCell id="8UIb9Dlm0H-UXilKtBtX-7" value="SourceOperator&lt;br&gt;T2" style="ellipse;whiteSpace=wrap;html=1;" parent="1" vertex="1">
          <mxGeometry x="106" y="478.75" width="110" height="72.5" as="geometry" />
        </mxCell>
        <mxCell id="8UIb9Dlm0H-UXilKtBtX-11" style="edgeStyle=orthogonalEdgeStyle;rounded=0;orthogonalLoop=1;jettySize=auto;html=1;exitX=1;exitY=0.5;exitDx=0;exitDy=0;entryX=0;entryY=0.5;entryDx=0;entryDy=0;" parent="1" source="8UIb9Dlm0H-UXilKtBtX-8" target="8UIb9Dlm0H-UXilKtBtX-10" edge="1">
          <mxGeometry relative="1" as="geometry" />
        </mxCell>
        <mxCell id="8UIb9Dlm0H-UXilKtBtX-8" value="HashProbeOperator" style="ellipse;whiteSpace=wrap;html=1;fillColor=#dae8fc;strokeColor=#6c8ebf;" parent="1" vertex="1">
          <mxGeometry x="274" y="478.75" width="110" height="72.5" as="geometry" />
        </mxCell>
        <mxCell id="8UIb9Dlm0H-UXilKtBtX-10" value="NextOperator" style="ellipse;whiteSpace=wrap;html=1;" parent="1" vertex="1">
          <mxGeometry x="429" y="478.75" width="110" height="72.5" as="geometry" />
        </mxCell>
        <mxCell id="8UIb9Dlm0H-UXilKtBtX-12" value="Pipeline1" style="text;html=1;strokeColor=none;fillColor=none;align=center;verticalAlign=middle;whiteSpace=wrap;rounded=0;" parent="1" vertex="1">
          <mxGeometry x="93" y="580" width="60" height="30" as="geometry" />
        </mxCell>
        <mxCell id="8UIb9Dlm0H-UXilKtBtX-14" value="shared by &lt;i&gt;&lt;b&gt;HashJoiner&lt;/b&gt;&lt;/i&gt;" style="text;html=1;strokeColor=none;fillColor=none;align=center;verticalAlign=middle;whiteSpace=wrap;rounded=0;" parent="1" vertex="1">
          <mxGeometry x="340" y="360" width="130" height="30" as="geometry" />
        </mxCell>
        <mxCell id="HET0psX9o1ZFZHM_igAW-1" value="" style="rounded=0;whiteSpace=wrap;html=1;fillColor=none;strokeColor=none;" vertex="1" parent="1">
          <mxGeometry x="20" y="160" width="650" height="470" as="geometry" />
        </mxCell>
      </root>
    </mxGraphModel>
  </diagram>
</mxfile>
